<mxfile host="app.diagrams.net" modified="2024-04-01T23:31:00.011Z" agent="Mozilla/5.0 (Windows NT 10.0; Win64; x64) AppleWebKit/537.36 (KHTML, like Gecko) Chrome/123.0.0.0 Safari/537.36" etag="3i67GaeGcesfwrOUQ-T0" version="24.2.1" type="github">
  <diagram name="Page-1" id="_WHE07SAWM-UD9e7mWyt">
    <mxGraphModel dx="1050" dy="557" grid="1" gridSize="10" guides="1" tooltips="1" connect="1" arrows="1" fold="1" page="1" pageScale="1" pageWidth="850" pageHeight="1100" math="0" shadow="0">
      <root>
        <mxCell id="0" />
        <mxCell id="1" parent="0" />
        <mxCell id="sb6TI0KvWBGxcupaylAa-1" value="&lt;b&gt;&lt;font face=&quot;Times New Roman&quot;&gt;Admin Upload CSV&lt;/font&gt;&lt;/b&gt;" style="rounded=0;whiteSpace=wrap;html=1;" vertex="1" parent="1">
          <mxGeometry x="40" y="140" width="120" height="60" as="geometry" />
        </mxCell>
        <mxCell id="sb6TI0KvWBGxcupaylAa-2" value="&lt;b&gt;&lt;font face=&quot;Times New Roman&quot;&gt;About Admin&lt;/font&gt;&lt;/b&gt;" style="rounded=0;whiteSpace=wrap;html=1;" vertex="1" parent="1">
          <mxGeometry x="640" y="60" width="120" height="60" as="geometry" />
        </mxCell>
        <mxCell id="sb6TI0KvWBGxcupaylAa-3" value="&lt;b&gt;DB SQLITE&lt;/b&gt;" style="rounded=0;whiteSpace=wrap;html=1;fontFamily=Times New Roman;" vertex="1" parent="1">
          <mxGeometry x="200" y="30" width="200" height="90" as="geometry" />
        </mxCell>
        <mxCell id="sb6TI0KvWBGxcupaylAa-4" value="&lt;font face=&quot;Times New Roman&quot;&gt;Admin Student&lt;/font&gt;" style="rounded=0;whiteSpace=wrap;html=1;fontStyle=1" vertex="1" parent="1">
          <mxGeometry x="440" y="140" width="120" height="60" as="geometry" />
        </mxCell>
        <mxCell id="sb6TI0KvWBGxcupaylAa-5" value="&lt;font face=&quot;Times New Roman&quot;&gt;Admin Student List&lt;/font&gt;" style="rounded=0;whiteSpace=wrap;html=1;fontStyle=1" vertex="1" parent="1">
          <mxGeometry x="640" y="140" width="120" height="60" as="geometry" />
        </mxCell>
        <mxCell id="sb6TI0KvWBGxcupaylAa-6" value="&lt;b&gt;&lt;font face=&quot;Times New Roman&quot;&gt;About User&lt;/font&gt;&lt;/b&gt;" style="rounded=0;whiteSpace=wrap;html=1;" vertex="1" parent="1">
          <mxGeometry x="840" y="140" width="120" height="60" as="geometry" />
        </mxCell>
        <mxCell id="sb6TI0KvWBGxcupaylAa-7" value="Default Admin" style="rounded=0;whiteSpace=wrap;html=1;fontFamily=Times New Roman;fontStyle=1" vertex="1" parent="1">
          <mxGeometry x="240" y="140" width="120" height="60" as="geometry" />
        </mxCell>
        <mxCell id="sb6TI0KvWBGxcupaylAa-8" value="&lt;font face=&quot;Times New Roman&quot;&gt;&lt;b&gt;Admin SignIn&lt;/b&gt;&lt;/font&gt;" style="rounded=0;whiteSpace=wrap;html=1;" vertex="1" parent="1">
          <mxGeometry x="40" y="260" width="120" height="60" as="geometry" />
        </mxCell>
        <mxCell id="sb6TI0KvWBGxcupaylAa-9" value="User Registration" style="rounded=0;whiteSpace=wrap;html=1;fontStyle=1;fontFamily=Times New Roman;" vertex="1" parent="1">
          <mxGeometry x="240" y="260" width="120" height="60" as="geometry" />
        </mxCell>
        <mxCell id="sb6TI0KvWBGxcupaylAa-11" value="&lt;b&gt;User Sign In&lt;/b&gt;" style="rounded=0;whiteSpace=wrap;html=1;fontFamily=Times New Roman;" vertex="1" parent="1">
          <mxGeometry x="440" y="260" width="120" height="60" as="geometry" />
        </mxCell>
        <mxCell id="sb6TI0KvWBGxcupaylAa-12" value="&lt;font&gt;&lt;b&gt;About User&lt;/b&gt;&lt;/font&gt;" style="rounded=0;whiteSpace=wrap;html=1;fontFamily=Times New Roman;" vertex="1" parent="1">
          <mxGeometry x="440" y="360" width="120" height="60" as="geometry" />
        </mxCell>
        <mxCell id="sb6TI0KvWBGxcupaylAa-16" value="" style="endArrow=none;html=1;rounded=0;" edge="1" parent="1">
          <mxGeometry width="50" height="50" relative="1" as="geometry">
            <mxPoint x="99.5" y="140" as="sourcePoint" />
            <mxPoint x="100" y="80" as="targetPoint" />
          </mxGeometry>
        </mxCell>
        <mxCell id="sb6TI0KvWBGxcupaylAa-17" value="" style="endArrow=classic;html=1;rounded=0;" edge="1" parent="1">
          <mxGeometry width="50" height="50" relative="1" as="geometry">
            <mxPoint x="100" y="80" as="sourcePoint" />
            <mxPoint x="200" y="80" as="targetPoint" />
          </mxGeometry>
        </mxCell>
        <mxCell id="sb6TI0KvWBGxcupaylAa-18" value="" style="endArrow=classic;html=1;rounded=0;" edge="1" parent="1">
          <mxGeometry width="50" height="50" relative="1" as="geometry">
            <mxPoint x="299.5" y="140" as="sourcePoint" />
            <mxPoint x="299.5" y="120" as="targetPoint" />
          </mxGeometry>
        </mxCell>
        <mxCell id="sb6TI0KvWBGxcupaylAa-19" value="" style="endArrow=classic;html=1;rounded=0;exitX=0.5;exitY=0;exitDx=0;exitDy=0;" edge="1" parent="1" source="sb6TI0KvWBGxcupaylAa-8">
          <mxGeometry width="50" height="50" relative="1" as="geometry">
            <mxPoint x="99.5" y="250" as="sourcePoint" />
            <mxPoint x="99.5" y="200" as="targetPoint" />
          </mxGeometry>
        </mxCell>
        <mxCell id="sb6TI0KvWBGxcupaylAa-20" value="" style="endArrow=classic;html=1;rounded=0;exitX=1;exitY=0.5;exitDx=0;exitDy=0;entryX=0;entryY=0.5;entryDx=0;entryDy=0;" edge="1" parent="1" source="sb6TI0KvWBGxcupaylAa-9" target="sb6TI0KvWBGxcupaylAa-11">
          <mxGeometry width="50" height="50" relative="1" as="geometry">
            <mxPoint x="400" y="320" as="sourcePoint" />
            <mxPoint x="450" y="270" as="targetPoint" />
          </mxGeometry>
        </mxCell>
        <mxCell id="sb6TI0KvWBGxcupaylAa-21" value="" style="endArrow=none;html=1;rounded=0;exitX=0.5;exitY=1;exitDx=0;exitDy=0;" edge="1" parent="1" source="sb6TI0KvWBGxcupaylAa-9">
          <mxGeometry width="50" height="50" relative="1" as="geometry">
            <mxPoint x="340" y="380" as="sourcePoint" />
            <mxPoint x="300" y="390" as="targetPoint" />
          </mxGeometry>
        </mxCell>
        <mxCell id="sb6TI0KvWBGxcupaylAa-22" value="" style="endArrow=none;html=1;rounded=0;entryX=0;entryY=0.5;entryDx=0;entryDy=0;" edge="1" parent="1" target="sb6TI0KvWBGxcupaylAa-12">
          <mxGeometry width="50" height="50" relative="1" as="geometry">
            <mxPoint x="300" y="390" as="sourcePoint" />
            <mxPoint x="340" y="410" as="targetPoint" />
          </mxGeometry>
        </mxCell>
        <mxCell id="sb6TI0KvWBGxcupaylAa-23" value="" style="endArrow=none;html=1;rounded=0;exitX=0.5;exitY=0;exitDx=0;exitDy=0;entryX=0.5;entryY=1;entryDx=0;entryDy=0;" edge="1" parent="1" source="sb6TI0KvWBGxcupaylAa-12" target="sb6TI0KvWBGxcupaylAa-11">
          <mxGeometry width="50" height="50" relative="1" as="geometry">
            <mxPoint x="470" y="360" as="sourcePoint" />
            <mxPoint x="520" y="310" as="targetPoint" />
          </mxGeometry>
        </mxCell>
        <mxCell id="sb6TI0KvWBGxcupaylAa-25" value="" style="endArrow=none;html=1;rounded=0;" edge="1" parent="1">
          <mxGeometry width="50" height="50" relative="1" as="geometry">
            <mxPoint x="380" y="170" as="sourcePoint" />
            <mxPoint x="440" y="170" as="targetPoint" />
          </mxGeometry>
        </mxCell>
        <mxCell id="sb6TI0KvWBGxcupaylAa-26" value="" style="endArrow=classic;html=1;rounded=0;" edge="1" parent="1">
          <mxGeometry width="50" height="50" relative="1" as="geometry">
            <mxPoint x="380" y="170" as="sourcePoint" />
            <mxPoint x="380" y="120" as="targetPoint" />
          </mxGeometry>
        </mxCell>
      </root>
    </mxGraphModel>
  </diagram>
</mxfile>
